<?xml version="1.0" standalone="no"?>
<!DOCTYPE svg PUBLIC "-//W3C//DTD SVG 20010904//EN"
 "http://www.w3.org/TR/2001/REC-SVG-20010904/DTD/svg10.dtd">
<svg version="1.0" xmlns="http://www.w3.org/2000/svg"
 width="180.000000pt" height="180.000000pt" viewBox="0 0 180.000000 180.000000"
 preserveAspectRatio="xMidYMid meet">

<g transform="translate(0.000000,180.000000) scale(0.100000,-0.100000)"
fill="#fff" stroke="none">
<path d="M374 1501 c-111 -5 -135 -9 -153 -25 -21 -19 -21 -21 -19 -579 l3
-560 28 -21 c28 -21 37 -21 578 -24 302 -1 564 1 581 6 17 4 40 19 49 32 13
17 40 138 85 380 36 195 68 376 71 402 6 56 -13 94 -52 104 -22 6 -25 11 -25
55 0 59 -15 93 -47 108 -16 7 -144 11 -393 11 -410 0 -368 -7 -426 67 -26 33
-78 54 -124 51 -14 -1 -84 -4 -156 -7z m232 -78 c13 -16 35 -41 48 -58 l24
-30 354 3 c194 2 370 1 391 -3 l37 -7 0 -54 0 -54 -535 0 -536 0 -23 -23 c-18
-18 -29 -59 -60 -222 -21 -110 -42 -207 -47 -215 -5 -8 -9 135 -9 326 0 251 3
343 12 352 8 8 60 12 166 12 l154 0 24 -27z m285 -289 c7 -8 15 -45 18 -81 6
-62 8 -67 34 -76 25 -8 33 -4 77 37 54 51 65 54 92 29 28 -25 22 -50 -27 -102
-43 -46 -44 -49 -33 -79 12 -31 13 -32 78 -32 73 0 90 -10 90 -52 0 -36 -24
-48 -97 -48 -57 0 -59 -1 -71 -32 -11 -31 -10 -34 33 -78 45 -46 55 -76 33
-98 -23 -23 -58 -12 -106 31 -42 39 -50 42 -74 33 -26 -9 -28 -14 -28 -62 0
-66 -13 -100 -40 -109 -39 -12 -60 19 -60 92 0 62 -1 63 -32 77 -32 13 -34 13
-79 -31 -55 -53 -97 -57 -113 -10 -9 25 -6 32 39 76 46 48 48 51 35 80 -12 30
-15 31 -73 31 -66 0 -97 17 -97 55 0 35 20 45 91 45 66 0 67 0 78 31 10 30 8
35 -34 80 -49 52 -54 72 -28 101 24 27 39 23 93 -28 48 -45 50 -46 85 -34 l35
12 0 67 c0 39 5 72 12 79 17 17 53 15 69 -4z"/>
</g>
</svg>
