<?xml version="1.0" standalone="no"?>
<!DOCTYPE svg PUBLIC "-//W3C//DTD SVG 20010904//EN"
 "http://www.w3.org/TR/2001/REC-SVG-20010904/DTD/svg10.dtd">
<svg version="1.0" xmlns="http://www.w3.org/2000/svg"
 width="180.000000pt" height="180.000000pt" viewBox="0 0 180.000000 180.000000"
 preserveAspectRatio="xMidYMid meet">

<g transform="translate(0.000000,180.000000) scale(0.100000,-0.100000)"
fill="#fff" stroke="none">
<path d="M245 1478 c-45 -26 -44 -24 -45 -456 l0 -413 25 -24 c24 -25 24 -25
235 -25 l210 0 0 -75 0 -75 -183 0 c-193 0 -207 -3 -207 -46 0 -56 -19 -54
616 -54 571 0 584 0 604 20 25 25 25 42 2 63 -16 15 -45 17 -200 17 l-182 0 0
75 0 75 215 0 c216 0 216 0 240 25 l25 24 0 413 c-1 435 0 432 -47 456 -31 17
-1279 16 -1308 0z m1262 -82 l28 -24 3 -334 c2 -183 0 -343 -3 -355 -3 -12
-15 -32 -27 -43 -21 -20 -33 -20 -600 -20 l-579 0 -24 25 -25 24 0 346 c0 226
4 353 11 366 6 11 20 24 32 29 12 5 277 9 589 9 l567 1 28 -24z"/>
<path d="M711 1345 c-98 -23 -96 -8 -50 -330 21 -154 41 -287 44 -296 11 -32
64 -44 200 -44 103 0 136 3 161 17 l31 17 41 293 c47 338 50 319 -54 344 -74
17 -300 17 -373 -1z m373 -46 c55 -15 32 -26 -88 -39 -97 -11 -269 0 -304 19
-59 33 284 51 392 20z m-224 -86 c80 -3 159 -1 194 6 33 6 61 9 64 7 3 -4 -39
-325 -54 -411 l-5 -30 -160 0 c-87 0 -159 0 -159 0 0 0 -13 95 -30 210 -36
255 -36 239 -7 230 12 -4 83 -9 157 -12z m135 -471 c69 -13 19 -26 -95 -26
-111 0 -165 14 -100 25 49 9 148 9 195 1z"/>
<path d="M883 1120 c-7 -39 -20 -46 -42 -26 -19 17 -41 21 -41 7 0 -5 7 -14
15 -21 8 -7 15 -21 15 -31 0 -15 -7 -19 -31 -19 -38 0 -35 -24 4 -28 31 -4 37
-32 12 -52 -11 -9 -13 -16 -6 -23 7 -7 16 -5 29 6 27 24 40 21 44 -10 2 -17 9
-28 18 -28 9 0 16 11 18 28 4 31 17 34 44 10 13 -11 22 -13 29 -6 7 7 5 14 -6
23 -25 20 -19 48 12 52 39 4 42 28 4 28 -24 0 -31 4 -31 19 0 10 7 24 15 31 8
7 15 16 15 21 0 14 -22 10 -41 -7 -22 -20 -35 -13 -42 26 -4 16 -11 30 -17 30
-6 0 -13 -14 -17 -30z"/>
</g>
</svg>
