<?xml version="1.0" standalone="no"?>
<!DOCTYPE svg PUBLIC "-//W3C//DTD SVG 20010904//EN"
 "http://www.w3.org/TR/2001/REC-SVG-20010904/DTD/svg10.dtd">
<svg version="1.0" xmlns="http://www.w3.org/2000/svg"
 width="180.000000pt" height="180.000000pt" viewBox="0 0 180.000000 180.000000"
 preserveAspectRatio="xMidYMid meet">

<g transform="translate(0.000000,180.000000) scale(0.100000,-0.100000)"
fill="#fff" stroke="none">
<path d="M383 1549 c-31 -12 -71 -39 -97 -65 -168 -168 -86 -477 229 -859 234
-284 453 -418 638 -393 103 14 175 70 223 173 29 62 30 85 3 119 -29 37 -248
146 -294 146 -30 0 -39 -7 -75 -55 -22 -30 -51 -57 -64 -61 -63 -15 -218 101
-326 246 -68 91 -130 223 -130 275 0 49 13 64 88 95 63 27 71 47 53 133 -20
95 -56 213 -74 241 -15 23 -24 26 -70 25 -28 0 -76 -9 -104 -20z"/>
<path d="M860 1523 c-49 -9 -73 -48 -50 -83 7 -12 33 -15 122 -16 77 0 132 -6
173 -18 188 -56 331 -200 384 -389 13 -46 24 -66 44 -77 23 -13 28 -13 46 4
27 25 26 51 -3 139 -37 109 -72 164 -160 253 -93 93 -202 154 -321 179 -66 14
-181 18 -235 8z"/>
<path d="M838 1330 c-21 -13 -24 -60 -6 -78 7 -7 43 -12 93 -12 101 0 165 -18
235 -67 73 -51 126 -123 151 -206 22 -70 44 -93 79 -82 38 12 43 41 21 115
-42 136 -156 259 -288 311 -66 26 -254 38 -285 19z"/>
<path d="M866 1134 c-19 -18 -21 -55 -4 -72 7 -7 32 -12 56 -12 102 0 182 -53
212 -139 17 -51 37 -66 72 -58 36 9 41 31 23 95 -21 72 -107 161 -179 185 -64
22 -159 22 -180 1z"/>
</g>
</svg>
