<?xml version="1.0" standalone="no"?>
<!DOCTYPE svg PUBLIC "-//W3C//DTD SVG 20010904//EN"
 "http://www.w3.org/TR/2001/REC-SVG-20010904/DTD/svg10.dtd">
<svg version="1.0" xmlns="http://www.w3.org/2000/svg"
 width="180.000000pt" height="180.000000pt" viewBox="0 0 180.000000 180.000000"
 preserveAspectRatio="xMidYMid meet">

<g transform="translate(0.000000,180.000000) scale(0.100000,-0.100000)"
fill="#fff" stroke="none">
<path d="M217 1420 c-14 -11 -28 -28 -31 -38 -5 -14 -76 -668 -76 -694 0 -5
42 -8 94 -8 72 0 104 5 137 20 57 25 124 25 174 0 36 -18 59 -20 270 -20 l230
0 37 353 c36 343 37 353 19 377 l-18 25 -405 3 c-394 2 -406 2 -431 -18z"/>
<path d="M1137 1382 c-12 -14 -24 -95 -52 -351 -19 -183 -35 -337 -35 -342 0
-18 124 -10 165 11 22 11 59 20 85 20 26 0 63 -9 85 -20 34 -17 59 -20 180
-20 l141 0 12 123 c7 67 12 137 12 154 0 34 -84 354 -102 386 -5 10 -24 27
-41 37 -29 18 -52 20 -233 20 -180 0 -203 -2 -217 -18z m240 -68 c8 -20 -17
-283 -29 -306 -12 -25 -165 -27 -174 -3 -7 17 21 299 31 315 3 5 42 10 86 10
64 0 81 -3 86 -16z m172 -1 c24 -21 98 -280 88 -307 -5 -13 -25 -16 -116 -16
-60 0 -113 4 -116 10 -9 15 24 301 36 317 16 19 83 16 108 -4z"/>
<path d="M341 678 c-92 -45 -131 -170 -78 -249 72 -108 239 -82 298 46 67 145
-74 275 -220 203z m116 -83 c29 -20 37 -59 18 -95 -27 -53 -82 -66 -122 -28
-32 30 -30 72 6 109 32 32 65 37 98 14z"/>
<path d="M1225 681 c-103 -46 -146 -176 -86 -259 68 -97 235 -73 290 40 72
150 -56 287 -204 219z m109 -92 c36 -28 35 -72 -3 -110 -37 -36 -73 -38 -108
-3 -20 20 -24 31 -19 56 14 70 78 98 130 57z"/>
<path d="M82 638 c-7 -7 -12 -31 -12 -55 l0 -43 74 0 c74 0 74 0 81 30 3 16
15 41 26 55 l20 25 -88 0 c-56 0 -93 -4 -101 -12z"/>
<path d="M584 638 c2 -7 10 -32 17 -55 l11 -43 237 0 236 0 26 55 25 55 -279
0 c-219 0 -278 -3 -273 -12z"/>
<path d="M1450 645 c0 -2 4 -14 9 -27 5 -13 12 -36 16 -51 l6 -28 101 3 102 3
9 38 c16 65 12 67 -123 67 -66 0 -120 -2 -120 -5z"/>
</g>
</svg>
