<?xml version="1.0" standalone="no"?>
<!DOCTYPE svg PUBLIC "-//W3C//DTD SVG 20010904//EN"
 "http://www.w3.org/TR/2001/REC-SVG-20010904/DTD/svg10.dtd">
<svg version="1.0" xmlns="http://www.w3.org/2000/svg"
 width="527.000000pt" height="148.000000pt" viewBox="0 0 527.000000 148.000000"
 preserveAspectRatio="xMidYMid meet">

<g transform="translate(0.000000,148.000000) scale(0.100000,-0.100000)"
fill="#fff" stroke="none">
<path d="M342 1068 c-9 -9 -12 -98 -12 -339 0 -284 2 -330 16 -343 13 -14 63
-16 395 -16 366 0 380 1 399 20 19 19 20 33 20 338 0 296 -1 320 -18 335 -17
15 -59 17 -403 17 -286 0 -388 -3 -397 -12z m146 -70 c6 -8 6 -22 1 -35 -11
-30 -55 -31 -64 -3 -12 38 38 68 63 38z m107 -23 c0 -27 -3 -30 -30 -30 -21 0
-31 5 -33 18 -6 33 6 49 35 45 24 -3 28 -8 28 -33z m110 15 c13 -41 -43 -70
-64 -33 -13 25 5 53 34 53 15 0 26 -7 30 -20z m352 -317 l2 -193 -315 0 -314
0 0 195 0 195 313 -2 312 -3 2 -192z"/>
<path d="M720 815 c0 -22 -31 -35 -52 -22 -25 16 -55 -13 -40 -39 12 -22 -1
-54 -23 -54 -7 0 -15 -6 -18 -12 -6 -18 11 -48 27 -48 17 0 27 -35 13 -49 -17
-17 12 -43 42 -36 29 6 44 -2 54 -27 9 -24 44 -23 52 2 7 21 10 22 60 24 28 1
30 3 28 39 -2 31 2 40 22 49 30 13 33 48 6 55 -23 6 -34 29 -25 55 9 30 -12
47 -50 41 -28 -4 -34 -2 -39 16 -6 25 -57 31 -57 6z m56 -93 c56 -37 11 -132
-48 -101 -29 15 -38 28 -38 56 0 36 56 65 86 45z"/>
<path d="M1367 973 c-11 -11 -8 -491 3 -498 22 -13 30 55 30 244 0 234 -6 281
-33 254z"/>
<path d="M1555 968 c-31 -18 -34 -28 -19 -64 17 -40 18 -171 4 -277 -13 -93
-4 -122 47 -144 50 -20 159 -13 205 14 25 14 34 27 36 52 3 32 2 33 -25 27
-146 -33 -188 -26 -199 30 -4 20 1 99 10 176 12 114 13 146 3 167 -14 30 -33
36 -62 19z"/>
<path d="M1980 970 c-70 -9 -87 -16 -94 -43 -9 -36 -7 -47 11 -47 14 0 15 -12
8 -122 -14 -213 -14 -224 18 -255 26 -26 33 -28 115 -28 73 0 93 4 124 23 39
24 51 43 41 68 -4 12 -14 14 -37 9 -17 -3 -63 -9 -102 -12 -88 -6 -104 5 -104
78 l0 49 84 0 c89 0 99 5 111 53 l7 27 -96 0 -96 0 6 58 c4 31 9 59 11 62 2 2
44 4 93 3 85 -1 91 0 110 24 11 14 20 31 20 38 0 24 -104 31 -230 15z"/>
<path d="M2392 961 c-70 -24 -112 -64 -112 -108 0 -26 4 -33 19 -33 19 0 19
-1 0 -50 -23 -59 -25 -156 -5 -204 18 -44 75 -86 125 -93 141 -19 258 91 275
257 19 191 -117 295 -302 231z m180 -88 c65 -32 89 -158 46 -235 -30 -53 -77
-80 -139 -80 -56 0 -91 18 -120 65 -28 44 -22 134 12 202 22 44 30 51 70 61
48 13 89 9 131 -13z"/>
<path d="M2807 968 c-21 -16 -23 -37 -13 -118 5 -45 3 -100 -8 -180 -22 -159
-21 -178 9 -192 19 -9 29 -7 51 6 21 15 25 23 19 44 -18 75 -20 116 -13 202 5
51 10 96 13 98 17 17 103 -103 167 -231 65 -130 87 -148 128 -107 16 16 19 33
19 127 -1 59 5 148 11 196 19 138 2 183 -58 154 -29 -14 -31 -25 -12 -97 12
-44 7 -210 -7 -245 -4 -12 -19 8 -48 63 -55 103 -116 192 -169 248 -45 46 -61
52 -89 32z"/>
<path d="M3480 971 c-47 -15 -85 -39 -121 -78 -47 -48 -64 -84 -80 -160 -25
-123 25 -225 126 -253 121 -34 255 51 255 160 0 22 8 38 25 52 14 11 25 30 25
44 0 24 -1 24 -94 24 -113 0 -149 -10 -144 -43 2 -16 11 -23 33 -25 70 -7 108
-43 92 -86 -19 -50 -141 -66 -196 -27 -44 31 -61 71 -61 138 1 135 106 208
233 162 43 -15 65 -7 78 28 15 40 -19 66 -87 69 -32 2 -70 0 -84 -5z"/>
<path d="M3975 962 c-49 -30 -96 -92 -137 -179 -22 -47 -46 -84 -57 -88 -27
-8 -44 -51 -30 -77 7 -13 9 -44 6 -79 -7 -63 3 -76 47 -59 28 10 41 41 32 76
-4 13 -4 35 0 49 6 25 7 26 78 19 41 -3 82 -2 97 4 25 10 27 8 39 -31 32 -109
60 -138 110 -112 37 19 38 34 4 75 -39 46 -64 140 -73 272 -4 71 -12 123 -20
132 -18 21 -59 20 -96 -2z m55 -165 l5 -87 -67 0 c-36 0 -73 -3 -82 -6 -24 -9
-20 23 11 84 31 62 77 104 107 100 19 -3 21 -11 26 -91z"/>
<path d="M4346 969 c-54 -13 -103 -45 -109 -71 -7 -23 2 -46 18 -47 12 -1 12
-116 1 -256 -10 -112 -2 -132 48 -119 43 10 52 30 33 70 -11 22 -17 60 -17
102 0 67 17 233 25 241 3 2 29 4 59 4 67 0 101 -20 110 -63 13 -66 -52 -121
-124 -105 -28 6 -30 5 -30 -24 0 -53 46 -65 118 -28 116 57 140 223 40 281
-35 21 -119 29 -172 15z"/>
<path d="M4746 969 c-57 -14 -103 -45 -109 -75 -4 -21 0 -28 15 -32 20 -5 20
-10 14 -116 -3 -61 -9 -143 -12 -181 -8 -87 4 -104 61 -85 39 13 46 40 20 74
-18 24 -19 95 -3 233 l11 101 36 4 c44 6 99 -6 118 -24 7 -8 16 -30 19 -49 5
-28 1 -41 -18 -64 -21 -24 -32 -28 -79 -29 -59 -1 -71 -15 -49 -57 10 -18 18
-21 52 -16 89 12 158 92 158 183 0 110 -96 165 -234 133z"/>
</g>
</svg>
