<?xml version="1.0" standalone="no"?>
<!DOCTYPE svg PUBLIC "-//W3C//DTD SVG 20010904//EN"
 "http://www.w3.org/TR/2001/REC-SVG-20010904/DTD/svg10.dtd">
<svg version="1.0" xmlns="http://www.w3.org/2000/svg"
 width="287.000000pt" height="60.000000pt" viewBox="0 0 287.000000 60.000000"
 preserveAspectRatio="xMidYMid meet">

<g transform="translate(0.000000,60.000000) scale(0.100000,-0.100000)"
fill="#fff" stroke="none">
<path d="M44 463 c-7 -82 0 -325 11 -343 4 -6 56 -10 128 -10 l122 0 -115 115
-115 115 100 100 100 100 -112 0 -111 0 -8 -77z"/>
<path d="M212 438 l-102 -103 112 -112 c62 -62 119 -113 128 -113 8 0 -36 51
-98 113 l-112 112 102 103 c57 56 96 102 87 102 -8 0 -61 -46 -117 -102z"/>
<path d="M2628 438 l102 -103 -112 -112 c-62 -62 -106 -113 -98 -113 9 0 67
52 130 115 l115 115 -100 100 c-60 61 -108 100 -120 100 -15 0 7 -27 83 -102z"/>
<path d="M2705 440 l100 -100 -115 -115 -115 -115 122 0 c106 0 122 2 128 18
11 29 18 252 11 335 l-8 77 -111 0 -112 0 100 -100z"/>
<path d="M1376 484 c-3 -9 -6 -47 -6 -85 0 -49 -3 -68 -11 -63 -7 4 -9 25 -7
55 l5 49 -47 0 c-63 0 -100 -28 -100 -76 0 -58 51 -90 100 -64 10 6 21 6 24 2
3 -5 21 -9 41 -10 25 -1 35 3 35 13 0 19 14 19 52 -1 25 -13 32 -14 39 -2 14
21 11 26 -26 38 -50 16 -51 27 -5 50 l40 20 0 -32 c0 -18 6 -44 13 -58 11 -22
19 -25 71 -26 43 -1 59 3 64 15 3 8 0 17 -6 19 -7 2 -12 25 -12 58 0 47 -2 54
-20 54 -16 0 -20 -7 -20 -38 0 -44 -21 -79 -40 -67 -8 5 -11 23 -8 56 4 42 3
49 -13 49 -10 0 -21 -5 -24 -10 -5 -8 -11 -8 -20 0 -10 8 -21 7 -44 -4 -42
-22 -44 -21 -37 29 7 40 5 45 -12 45 -11 0 -23 -7 -26 -16z m-66 -113 c0 -36
-33 -52 -57 -28 -21 21 -1 57 32 57 21 0 25 -5 25 -29z"/>
<path d="M700 364 c0 -67 2 -74 20 -74 17 0 20 7 20 43 0 23 4 48 9 56 16 25
31 1 31 -50 0 -42 3 -49 20 -49 17 0 20 7 20 43 0 23 4 48 9 56 16 25 31 1 31
-50 0 -42 3 -49 20 -49 17 0 20 7 20 49 0 68 -14 101 -43 101 -13 0 -29 -6
-35 -12 -10 -10 -15 -10 -20 -1 -4 6 -28 11 -55 11 l-47 0 0 -74z"/>
<path d="M910 387 c0 -77 17 -97 83 -94 29 1 55 6 59 12 5 6 8 5 8 -2 0 -7 9
-13 20 -13 17 0 20 7 20 44 0 35 5 48 22 60 31 22 38 12 38 -50 0 -47 2 -54
20 -54 18 0 20 7 20 56 0 83 -9 93 -80 92 l-60 -1 0 -53 c0 -30 -4 -54 -10
-54 -12 0 -13 11 -10 68 1 35 -1 42 -17 42 -15 0 -21 -11 -29 -52 -6 -36 -14
-53 -24 -53 -11 0 -16 14 -18 53 -3 44 -6 52 -23 52 -16 0 -19 -7 -19 -53z"/>
<path d="M1672 427 c-8 -10 -4 -24 18 -57 l29 -43 -25 -32 c-22 -29 -23 -33
-8 -39 23 -9 41 10 89 88 22 36 43 66 46 66 4 0 9 -19 12 -41 3 -24 15 -51 27
-63 l21 -21 17 21 c17 21 17 21 33 1 30 -39 67 3 84 96 6 33 5 37 -13 37 -16
0 -21 -9 -26 -45 -4 -24 -11 -47 -15 -50 -10 -6 -21 29 -21 68 0 20 -5 27 -19
27 -15 0 -20 -10 -25 -50 -8 -60 -21 -58 -30 4 -7 44 -8 45 -45 44 -34 0 -40
-5 -55 -34 -20 -43 -32 -43 -53 1 -18 38 -25 42 -41 22z"/>
<path d="M2057 420 c-67 -53 1 -166 73 -120 9 5 19 5 28 -2 22 -18 40 7 24 33
-8 12 -12 40 -10 62 l3 42 -46 3 c-34 2 -52 -2 -72 -18z m73 -49 c0 -21 -6
-32 -20 -36 -27 -8 -40 1 -40 29 0 29 7 36 37 36 19 0 23 -5 23 -29z"/>
<path d="M592 203 c3 -46 4 -48 32 -48 16 0 31 5 33 11 2 7 -6 10 -22 7 -15
-3 -25 -1 -25 6 0 6 11 11 25 11 14 0 25 5 25 10 0 6 -11 10 -25 10 -14 0 -25
5 -25 10 0 6 11 10 25 10 14 0 25 5 25 10 0 6 -16 10 -36 10 l-35 0 3 -47z"/>
<path d="M676 219 c-6 -31 7 -69 24 -69 13 0 13 17 -1 26 -6 3 -9 19 -5 35 3
15 2 31 -3 33 -5 3 -11 -8 -15 -25z"/>
<path d="M1080 237 c0 -7 -10 -17 -22 -22 -27 -12 -30 -43 -6 -59 13 -8 23 -8
36 0 12 8 22 8 33 1 9 -6 25 -7 35 -2 17 7 17 8 -6 14 l-25 7 24 6 c13 4 21
12 19 20 -7 21 -40 22 -55 2 -12 -16 -13 -15 -13 14 0 18 -4 32 -10 32 -5 0
-10 -6 -10 -13z m-2 -49 c-6 -18 -28 -21 -28 -4 0 9 7 16 16 16 9 0 14 -5 12
-12z"/>
<path d="M1477 217 c-5 -33 7 -67 23 -67 6 0 10 7 10 15 0 8 -5 15 -11 15 -7
0 -9 11 -6 30 4 16 2 32 -2 35 -5 2 -11 -10 -14 -28z"/>
<path d="M895 230 c-3 -5 -21 -10 -40 -10 -29 0 -34 -4 -38 -27 l-4 -28 -2 28
c-1 22 -6 27 -26 27 -30 0 -52 -34 -35 -55 18 -22 84 -15 90 10 8 28 50 33 50
6 0 -25 18 -37 33 -22 8 8 8 11 -1 11 -16 0 -16 27 0 32 9 3 8 9 -4 21 -10 11
-19 13 -23 7z m-105 -45 c0 -8 -4 -15 -9 -15 -13 0 -22 16 -14 24 11 11 23 6
23 -9z"/>
<path d="M944 206 c-11 -29 0 -51 26 -51 21 0 25 5 25 30 0 24 -5 31 -23 33
-13 2 -24 -3 -28 -12z m43 -32 c-3 -3 -12 -4 -19 -1 -8 3 -5 6 6 6 11 1 17 -2
13 -5z"/>
<path d="M1200 189 c0 -15 5 -31 10 -34 6 -3 10 3 10 15 0 11 7 23 15 26 23 9
18 22 -10 22 -21 0 -25 -5 -25 -29z"/>
<path d="M1267 213 c-15 -14 -6 -52 13 -58 25 -8 40 1 40 23 1 16 1 16 11 0 5
-10 18 -18 27 -19 10 -1 7 -4 -8 -9 -23 -7 -23 -8 -6 -15 14 -6 24 -2 37 14
10 12 20 17 23 12 4 -5 20 -9 37 -9 22 1 28 5 24 15 -3 8 -5 23 -5 34 0 25
-45 26 -59 2 -10 -17 -10 -17 -11 0 0 19 -39 24 -57 6 -8 -8 -13 -8 -17 0 -8
12 -39 15 -49 4z m103 -23 c0 -5 -4 -10 -10 -10 -5 0 -10 5 -10 10 0 6 5 10
10 10 6 0 10 -4 10 -10z m70 -5 c0 -8 -7 -15 -15 -15 -16 0 -20 12 -8 23 11
12 23 8 23 -8z m-133 -11 c-3 -3 -12 -4 -19 -1 -8 3 -5 6 6 6 11 1 17 -2 13
-5z"/>
<path d="M1529 204 c-21 -25 1 -49 50 -51 38 -3 41 -1 41 22 0 16 6 25 15 25
8 0 15 5 15 10 0 6 -11 10 -24 10 -19 0 -26 -6 -29 -27 l-4 -28 -2 28 c-1 21
-6 27 -25 27 -13 0 -29 -7 -37 -16z m41 -19 c0 -8 -7 -15 -15 -15 -8 0 -15 7
-15 15 0 8 7 15 15 15 8 0 15 -7 15 -15z"/>
<path d="M1684 206 c-11 -29 0 -51 26 -51 21 0 25 5 25 30 0 24 -5 31 -23 33
-13 2 -24 -3 -28 -12z m36 -6 c0 -5 -5 -10 -11 -10 -5 0 -7 5 -4 10 3 6 8 10
11 10 2 0 4 -4 4 -10z m7 -26 c-3 -3 -12 -4 -19 -1 -8 3 -5 6 6 6 11 1 17 -2
13 -5z"/>
<path d="M1750 185 c0 -41 20 -48 21 -7 l1 27 13 -30 c9 -21 15 -25 18 -15 3
8 8 22 10 30 3 8 6 3 6 -12 1 -25 21 -42 21 -18 0 6 10 5 25 -2 19 -8 29 -8
36 -1 8 8 18 8 35 1 17 -8 27 -8 39 2 10 8 15 9 15 1 0 -6 5 -11 10 -11 6 0
10 16 10 35 0 19 -4 35 -10 35 -5 0 -10 -9 -10 -19 0 -17 -18 -31 -41 -31 -20
0 -8 29 14 33 20 3 21 4 3 12 -11 5 -26 4 -37 -3 -11 -7 -20 -8 -24 -2 -10 16
-45 12 -52 -6 -5 -14 -7 -14 -14 -2 -5 9 -25 15 -49 16 -39 2 -40 1 -40 -33z
m148 3 c-6 -18 -28 -21 -28 -4 0 9 7 16 16 16 9 0 14 -5 12 -12z"/>
<path d="M2033 213 c-18 -7 -16 -38 3 -54 12 -10 20 -10 34 -1 15 9 21 9 27
-1 5 -8 9 -4 13 12 8 34 30 39 30 7 0 -14 5 -26 10 -26 6 0 10 5 10 10 0 6 7
6 19 -1 11 -7 26 -9 37 -4 17 7 17 8 -6 14 -25 7 -25 7 -2 13 12 3 22 11 22
17 0 18 -31 25 -51 13 -11 -7 -20 -8 -24 -2 -8 13 -48 13 -62 -1 -8 -8 -13 -8
-17 0 -7 11 -22 13 -43 4z m37 -28 c0 -8 -7 -15 -15 -15 -8 0 -15 7 -15 15 0
8 7 15 15 15 8 0 15 -7 15 -15z m137 9 c-3 -3 -12 -4 -19 -1 -8 3 -5 6 6 6 11
1 17 -2 13 -5z"/>
<path d="M2247 213 c-13 -12 -7 -24 16 -34 l22 -10 -23 5 c-15 3 -22 0 -19 -7
2 -7 13 -13 25 -15 26 -4 42 26 21 39 -10 6 -10 9 -1 9 6 0 12 5 12 10 0 11
-43 14 -53 3z"/>
</g>
</svg>
